HIERARCHY
ROOT Hips
{
	OFFSET 0.000000 0.000000 0.000000
	CHANNELS 6 Xposition Yposition Zposition Zrotation Yrotation Xrotation 
	JOINT LHipJoint
	{
		OFFSET 0.000000 0.000000 0.000000
		CHANNELS 3 Zrotation Yrotation Xrotation
		JOINT LeftUpLeg
		{
			OFFSET 1.363060 -1.794630 0.839290
			CHANNELS 3 Zrotation Yrotation Xrotation
			JOINT LeftLeg
			{
				OFFSET 2.448110 -6.726130 0.000000
				CHANNELS 3 Zrotation Yrotation Xrotation
				JOINT LeftFoot
				{
					OFFSET 2.562200 -7.039590 0.000000
					CHANNELS 3 Zrotation Yrotation Xrotation
					JOINT LeftToeBase
					{
						OFFSET 0.157640 -0.433110 2.322550
						CHANNELS 3 Zrotation Yrotation Xrotation
						End Site
						{
							OFFSET 0.000000 0.000000 0.000000
						}
					}
				}
			}
		}
	}
	JOINT RHipJoint
	{
		OFFSET 0.000000 0.000000 0.000000
		CHANNELS 3 Zrotation Yrotation Xrotation
		JOINT RightUpLeg
		{
			OFFSET -1.305520 -1.794630 0.839290
			CHANNELS 3 Zrotation Yrotation Xrotation
			JOINT RightLeg
			{
				OFFSET -2.542530 -6.985550 0.000000
				CHANNELS 3 Zrotation Yrotation Xrotation
				JOINT RightFoot
				{
					OFFSET -2.568260 -7.056230 0.000000
					CHANNELS 3 Zrotation Yrotation Xrotation
					JOINT RightToeBase
					{
						OFFSET -0.164730 -0.452590 2.363150
						CHANNELS 3 Zrotation Yrotation Xrotation
						End Site
						{
							OFFSET 0.000000 0.000000 0.000000
						}
					}
				}
			}
		}
	}
}
MOTION
Frames: 30
Frame Time: 0.008333
1.656534 15.382781 -0.800703 140.328560 -84.575388 -94.883721 -9.196922 -2.702212 0.745188 -10.628357 -3.325383 -90.744074 0.894305 6.178111 70.370209 3.847103 18.001885 -2.068337 3.028900 -0.000000 -46.780600 7.338562 0.517949 0.945919 15.182836 5.481385 -80.285907 1.922250 -5.566022 60.306181 -2.295386 -2.015880 -25.100180 1.284900 0.000000 -44.541100
1.655124 15.415055 -0.824822 138.138747 -84.595437 -93.669481 -9.153672 -2.845433 0.637922 -10.761315 -3.340795 -90.859741 1.193295 6.234703 72.170179 3.917410 18.897085 0.026213 3.780800 -0.000000 -45.914600 7.380945 0.508179 0.760363 15.371271 4.817557 -79.034417 1.938344 -5.533241 60.146025 -2.275732 -1.996601 -25.144513 1.287900 -0.000001 -44.945700
1.655020 15.449504 -0.849532 136.004622 -84.581422 -92.525331 -9.090696 -2.966243 0.503214 -11.051387 -3.342179 -91.006457 1.472040 6.300994 74.005789 3.965275 19.659163 2.086563 4.533000 -0.000000 -44.627700 7.441244 0.512885 0.579641 15.487944 4.142286 -77.763535 1.951835 -5.494096 59.945306 -2.256203 -1.990171 -25.167441 1.290000 0.000000 -45.360400
1.656063 15.485728 -0.874668 134.029005 -84.532941 -91.538984 -9.011588 -3.062673 0.344573 -11.486941 -3.332126 -91.196484 1.732002 6.378396 75.860731 3.990873 20.273287 4.051660 5.249700 -0.000000 -43.026300 7.515742 0.532821 0.407783 15.526499 3.480100 -76.482217 1.960383 -5.446177 59.703964 -2.240275 -2.011460 -25.167417 1.293800 0.000000 -45.783900
1.658351 15.523523 -0.899898 132.222882 -84.455463 -90.710423 -8.919403 -3.135968 0.167744 -12.048068 -3.322747 -91.447139 1.976874 6.467055 77.720995 3.995463 20.731869 5.869232 5.898200 0.000000 -41.251100 7.600177 0.566522 0.247643 15.487708 2.850287 -75.201808 1.962864 -5.388664 59.421482 -2.230993 -2.072362 -25.145138 1.302300 0.000001 -46.205500
1.661624 15.562540 -0.924864 130.559556 -84.357144 -89.993805 -8.816389 -3.188748 -0.019783 -12.710201 -3.332319 -91.779418 2.211226 6.565957 79.572901 3.981246 21.036077 7.509544 6.456800 0.000000 -39.500700 7.690890 0.611140 0.102140 15.376165 2.269689 -73.936294 1.958922 -5.321629 59.096891 -2.230879 -2.182435 -25.100614 1.317400 -0.000000 -46.611600
1.665907 15.602509 -0.949122 128.967188 -84.248420 -89.303920 -8.703630 -3.225474 -0.209893 -13.445822 -3.384491 -92.216625 2.439855 6.673194 81.404451 3.950547 21.192155 8.967650 6.915700 0.000000 -37.985100 7.784189 0.663381 -0.027437 15.201983 1.749661 -72.700535 1.948844 -5.246253 58.730264 -2.241670 -2.347883 -25.033609 1.340500 0.000000 -46.990799
1.671109 15.643122 -0.972202 127.354278 -84.140596 -88.534119 -8.581492 -3.250996 -0.393847 -14.226508 -3.506652 -92.781486 2.666613 6.786083 83.202843 3.905233 21.207406 10.262513 7.275800 -0.000000 -36.881000 7.876925 0.719746 -0.141024 14.979016 1.295240 -71.510461 1.933713 -5.164578 58.322763 -2.264135 -2.570368 -24.943872 1.371800 -0.000000 -47.334700
1.677193 15.684071 -0.993878 125.644000 -84.039938 -87.595289 -8.448862 -3.268488 -0.565043 -15.030558 -3.724137 -93.491436 2.893446 6.902212 84.953332 3.845558 21.082597 11.425467 7.541500 -0.000001 -36.234600 7.967813 0.778861 -0.239819 14.718065 0.905660 -70.380479 1.914423 -5.078861 57.877593 -2.297933 -2.847553 -24.829925 1.410400 0.000000 -47.666700
1.683897 15.724949 -1.013440 123.690171 -83.961702 -86.326496 -8.306431 -3.284430 -0.710897 -15.818702 -4.072925 -94.367152 3.120738 7.016442 86.632730 3.772684 20.825032 12.537326 7.735900 -0.000000 -36.313300 8.052848 0.835386 -0.327126 14.445800 0.570110 -69.329077 1.894792 -4.993028 57.398255 -2.341711 -3.168546 -24.695877 1.454300 -0.000000 -47.931600
1.691405 15.765455 -1.030876 121.422160 -83.906275 -84.652953 -8.151693 -3.299485 -0.826577 -16.572356 -4.574766 -95.412556 3.345407 7.125592 88.212940 3.684781 20.423944 13.657916 7.867201 0.000000 -37.049300 8.133031 0.890456 -0.406912 14.171982 0.274898 -68.368502 1.876375 -4.910061 56.891742 -2.392983 -3.521611 -24.540942 1.500400 0.000000 -48.158800
1.699601 15.805121 -1.046024 118.752864 -83.875195 -82.480728 -7.983377 -3.314046 -0.905182 -17.265296 -5.251281 -96.629514 3.562374 7.225862 89.658793 3.580100 19.865678 14.854676 7.941600 -0.000000 -38.352500 8.208797 0.943818 -0.484005 13.912204 0.000560 -67.511737 1.862273 -4.833570 56.366641 -2.448418 -3.888689 -24.369376 1.545400 0.000000 -48.330900
1.708601 15.843615 -1.059176 115.659160 -83.859143 -79.786562 -7.798654 -3.324348 -0.944389 -17.879772 -6.111693 -98.003922 3.762940 7.313600 90.922894 3.456268 19.130903 16.196957 7.959100 -0.000001 -40.212500 8.283726 0.999590 -0.563261 13.669726 -0.272467 -66.767307 1.853895 -4.766201 55.832773 -2.504121 -4.252757 -24.180552 1.585300 -0.000000 -48.505300
1.718540 15.880534 -1.070489 112.117574 -83.849048 -76.548307 -7.596868 -3.326264 -0.940495 -18.390644 -7.161927 -99.520219 3.937092 7.385282 91.953612 3.312294 18.202136 17.735930 7.909000 -0.000000 -42.555600 8.359834 1.060571 -0.649892 13.452561 -0.565978 -66.143073 1.853613 -4.710669 55.300656 -2.555962 -4.593879 -23.978075 1.616599 0.000000 -48.695799
1.729264 15.915352 -1.080078 108.161563 -83.832119 -72.799669 -7.379807 -3.313365 -0.891259 -18.775226 -8.397171 -101.162038 4.075636 7.439866 92.704859 3.147346 17.057776 19.460195 7.757400 -0.000000 -44.913100 8.438239 1.129322 -0.747873 13.267045 -0.898951 -65.645750 1.863964 -4.669092 54.783072 -2.599708 -4.889300 -23.772560 1.637100 -0.000000 -48.842900
1.741003 15.947800 -1.088475 103.914024 -83.787774 -68.670214 -7.149913 -3.277872 -0.798175 -19.016771 -9.800214 -102.899468 4.167351 7.475746 93.120452 2.963176 15.694345 21.365379 7.478200 0.000000 -47.207900 8.520063 1.210838 -0.860478 13.107571 -1.285125 -65.277371 1.884936 -4.642063 54.290781 -2.631896 -5.124875 -23.564363 1.644600 -0.000000 -49.001800
1.742564 15.974806 -1.081936 91.603225 -83.948900 -56.270154 -6.833999 -3.203032 -0.419358 -18.554461 -12.204152 -104.862990 4.221043 7.364159 93.099580 2.797094 14.228536 23.659865 7.147600 0.000000 -49.469300 8.678123 1.272459 -1.079184 13.497394 -2.381868 -65.246629 2.026220 -4.716686 53.795527 -2.637727 -5.168251 -23.473313 1.638900 0.000000 -49.078599
1.756271 16.001549 -1.089273 87.735435 -83.727143 -52.360672 -6.602894 -3.084659 -0.251694 -18.483054 -13.847140 -106.705032 4.195644 7.366417 92.704536 2.583752 12.473470 25.705898 6.524400 0.000000 -50.935100 8.754612 1.396284 -1.227409 13.363677 -2.895936 -65.133000 2.066269 -4.713226 53.389993 -2.638037 -5.242842 -23.277215 1.619200 -0.000000 -49.263100
1.770884 16.024928 -1.096355 84.211687 -83.430401 -48.717982 -6.384069 -2.936312 -0.047801 -18.235507 -15.572537 -108.573286 4.109391 7.352072 91.866448 2.364698 10.610946 27.675014 5.741800 0.000000 -51.846300 8.819198 1.527320 -1.388456 13.234088 -3.472383 -65.155710 2.115448 -4.725409 53.037413 -2.622764 -5.236430 -23.094079 1.587300 0.000000 -49.456100
1.786275 16.044752 -1.103349 81.134127 -83.058265 -45.445638 -6.183474 -2.759358 0.189226 -17.804148 -17.346408 -110.453855 3.963844 7.321889 90.571312 2.145712 8.734603 29.463738 4.848500 0.000000 -52.269800 8.868600 1.661042 -1.557686 13.103118 -4.099565 -65.314761 2.172622 -4.753496 52.740635 -2.593396 -5.155281 -22.926886 1.545400 0.000000 -49.647400
1.802387 16.060982 -1.110331 78.541178 -82.617400 -42.583241 -6.005791 -2.555235 0.457085 -17.182170 -19.134061 -112.341088 3.763132 7.276979 88.815850 1.931318 6.953374 30.981059 3.921099 0.000000 -52.346400 8.901014 1.793395 -1.729390 12.967385 -4.758776 -65.608624 2.236260 -4.797123 52.498255 -2.552616 -5.011684 -22.775923 1.495700 0.000000 -49.832500
1.819135 16.073602 -1.117226 76.418771 -82.119965 -40.114438 -5.855328 -2.324882 0.755730 -16.361983 -20.903020 -114.237436 3.512403 7.218719 86.603637 1.724658 5.378398 32.163313 3.052900 -0.000000 -52.338600 8.915861 1.921047 -1.897775 12.826611 -5.425732 -66.034775 2.304591 -4.855312 52.307251 -2.504056 -4.821900 -22.641610 1.441200 -0.000000 -49.987400
1.836424 16.082712 -1.123898 74.717615 -81.582383 -37.986194 -5.737321 -2.068948 1.087887 -15.336522 -22.620999 -116.151074 3.217012 7.149724 83.944609 1.525973 4.098650 32.958575 2.330301 -0.000000 -52.369200 8.913527 2.041697 -2.057344 12.682526 -6.072578 -66.589929 2.375554 -4.926283 52.161167 -2.451792 -4.605293 -22.520335 1.384499 0.000000 -50.115400
1.854066 16.088422 -1.130170 73.377380 -81.022074 -36.130906 -5.658166 -1.788424 1.460184 -14.098175 -24.259405 -118.096155 2.879811 7.073396 80.848344 1.333755 3.172254 33.339495 1.820300 -0.000000 -52.579200 8.894981 2.154095 -2.204341 12.538413 -6.671249 -67.270000 2.447177 -5.007783 52.052616 -2.399989 -4.381386 -22.409026 1.328300 -0.000000 -50.204600
1.872017 16.090966 -1.135840 72.342378 -80.456174 -34.487140 -5.625777 -1.486289 1.883103 -12.641049 -25.789306 -120.084773 2.499122 6.993407 77.321073 1.144718 2.615925 33.289568 1.557400 0.000000 -53.002300 8.861781 2.258894 -2.337753 12.395772 -7.197221 -68.069180 2.517468 -5.097399 51.974077 -2.352150 -4.167663 -22.303224 1.274501 0.000000 -50.251800
1.890249 16.090577 -1.140794 71.576753 -79.901775 -33.014354 -5.649211 -1.168645 2.371029 -10.964791 -27.178528 -122.123128 2.066424 6.912822 73.364718 0.954323 2.403584 32.795051 1.539700 0.000000 -53.510799 8.816050 2.358653 -2.459981 12.254874 -7.630070 -68.978963 2.584586 -5.192737 51.919696 -2.310678 -3.977098 -22.199031 1.224700 -0.000000 -50.259501
1.908508 16.087449 -1.145014 71.074703 -79.374806 -31.700290 -5.736723 -0.845879 2.943079 -9.071231 -28.391912 -124.208699 1.563209 6.829521 68.966904 0.760105 2.481528 31.875089 1.739800 0.000000 -54.151700 8.760805 2.458865 -2.577735 12.110862 -7.958185 -69.986356 2.647073 -5.291660 51.885181 -2.276454 -3.816606 -22.092983 1.179199 0.000000 -50.230999
1.926859 16.081821 -1.148634 70.853871 -78.892523 -30.565467 -5.893587 -0.534708 3.619445 -6.971314 -29.382498 -126.324426 0.961826 6.733274 64.113526 0.561142 2.768552 30.543069 2.104700 -0.000001 -54.661700 8.699341 2.568027 -2.701838 11.957075 -8.174982 -71.072944 2.703480 -5.392162 51.869529 -2.248857 -3.686779 -21.983382 1.138000 -0.000000 -50.176300
1.945245 16.073912 -1.151887 70.953658 -78.473656 -29.655494 -6.117237 -0.257785 4.418809 -4.680070 -30.092330 -128.431131 0.228210 6.595467 58.781835 0.363679 3.184757 28.850812 2.577900 0.000000 -54.916300 8.635357 2.696939 -2.846378 11.784439 -8.281589 -72.212575 2.752701 -5.492438 51.874640 -2.225721 -3.581730 -21.870325 1.100200 0.000000 -50.107500
1.963472 16.063797 -1.155127 71.420517 -78.137128 -29.030836 -6.391813 -0.041456 5.349693 -2.217685 -30.452389 -130.464889 -0.665057 6.362414 52.960878 0.182452 3.661274 26.869943 3.104300 0.000000 -54.674201 8.572212 2.855835 -3.024639 11.586141 -8.283255 -73.374294 2.793787 -5.590835 51.905757 -2.204167 -3.491641 -21.756741 1.065000 -0.000000 -50.039400
